<svg width="133" height="95" viewBox="0 0 133 95" fill="none" xmlns="http://www.w3.org/2000/svg">
<path d="M87.3475 12.3185C78.8371 10.1726 67.9048 9.00073 56.5662 9.00073C45.2224 9.00073 34.2902 10.1726 25.7848 12.3185C16.0556 14.7663 11.3262 17.9174 11.3262 21.9539C11.3262 25.9903 15.972 28.7247 25.9462 30.5685C33.8003 32.0163 44.6755 32.8081 56.5662 32.8081C68.4568 32.8081 79.3315 32.0164 87.1862 30.5685C97.1602 28.7455 101.806 25.9955 101.806 21.9539C101.806 17.9175 97.077 14.7717 87.3475 12.3185Z" fill="black"/>
<path d="M131.842 39.4225C130.373 33.7558 125.946 30.011 119.04 28.5891C116.977 28.1777 114.878 27.9693 112.774 27.9693C113.18 22.9381 113.118 19.7297 113.118 19.5735C113.092 15.4849 109.993 9.67761 95.4977 5.10414C85.0602 1.81241 71.2323 1.11601e-05 56.5603 1.11601e-05C41.8937 -0.00519684 28.0657 1.81254 17.6283 5.09374C3.12833 9.68228 0.0349935 15.4896 0.00299354 19.5777C0.00299354 19.9736 -0.174087 29.3381 2.19566 41.4217C4.40926 52.6613 9.34153 68.4217 20.3157 79.6351C29.6698 89.1976 41.8677 94.0417 56.5557 94.0417C74.7063 94.0417 88.905 86.7344 98.7637 72.3231C103.712 71.896 120.941 69.6512 128.832 58.9591C132.8 53.5997 133.806 47.0216 131.842 39.4231L131.842 39.4225ZM124.659 55.8598C117.066 66.1671 97.3994 67.2139 97.2007 67.2243V67.2191H97.0965H97.008C96.982 67.2191 96.8882 67.2347 96.8309 67.2504L96.7684 67.2608C96.7059 67.2712 96.6434 67.292 96.5809 67.3129L96.5341 67.3233C96.4716 67.3441 96.4039 67.365 96.3414 67.3962L96.2997 67.417C96.2372 67.4431 96.1747 67.4691 96.1174 67.5004L96.0705 67.5264C96.0132 67.5577 95.9559 67.5889 95.9039 67.6306L95.8518 67.6618L95.7007 67.7764L95.6486 67.8181C95.5966 67.8597 95.5549 67.9014 95.5132 67.9431L95.4664 67.99C95.4195 68.042 95.3726 68.0889 95.3309 68.141L95.2997 68.1827L95.2893 68.1775C95.2424 68.24 95.1955 68.3024 95.1539 68.3649V68.3806C86.2997 81.9432 73.3099 88.8179 56.5699 88.8179C43.3407 88.8179 32.4032 84.5054 24.0645 75.995C13.9968 65.7398 9.40853 51.0523 7.3352 40.5363C5.0488 28.979 5.21013 19.7763 5.21013 19.6763V19.619C5.21013 13.5982 24.7408 5.19235 56.5595 5.19235C88.3781 5.19235 107.909 13.5934 107.909 19.619V19.6763C107.914 23.2648 107.711 26.8534 107.315 30.4159V30.4367V30.6034V30.7076V30.8326V30.9784C107.31 30.9888 107.31 30.994 107.315 30.9992C107.31 31.0253 107.31 31.0565 107.315 31.0826C107.315 31.1347 107.331 31.1867 107.341 31.2388C107.352 31.2909 107.362 31.3118 107.367 31.343L107.409 31.4784C107.419 31.5201 107.44 31.5617 107.45 31.5982C107.466 31.6399 107.482 31.6763 107.492 31.7128C107.508 31.7492 107.534 31.7961 107.549 31.8378L107.602 31.942C107.622 31.9836 107.648 32.0253 107.674 32.0617C107.7 32.1034 107.716 32.1242 107.737 32.1555L107.815 32.2597C107.841 32.2909 107.867 32.3222 107.888 32.3534C107.914 32.3847 107.94 32.4159 107.971 32.4472V32.4524C107.997 32.4888 108.029 32.5201 108.06 32.5513L108.143 32.6242L108.253 32.718L108.331 32.7753L108.456 32.869L108.539 32.9211L108.674 32.9992L108.768 33.0409L108.904 33.1034L109.133 33.1867H109.128C109.174 33.2024 109.227 33.2128 109.279 33.2232L109.372 33.244L109.544 33.2701H109.992C110.055 33.2701 110.107 33.2701 110.169 33.2597H110.19C110.336 33.2388 124.441 31.6659 126.774 40.6971C128.389 46.8117 127.675 51.7649 124.66 55.8531L124.659 55.8598Z" fill="black"/>
<path d="M113.852 37.6051C111.905 37.3864 109.936 37.4437 108.003 37.7614H107.983L107.795 37.803L107.722 37.8239L107.566 37.876L107.472 37.9124L107.358 37.9645L107.233 38.027L107.16 38.0687L107.035 38.1676L106.972 38.2145L106.832 38.3187C106.811 38.3395 106.79 38.3603 106.764 38.3812C106.743 38.402 106.686 38.4489 106.649 38.4853C106.618 38.5166 106.592 38.5478 106.566 38.5843L106.488 38.6676L106.394 38.7926L106.342 38.8655C106.311 38.9072 106.29 38.9489 106.259 38.9957C106.233 39.0374 106.222 39.053 106.207 39.0791C106.191 39.1103 106.17 39.1572 106.149 39.1937L106.097 39.3082L106.092 39.3187C106.082 39.3447 106.066 39.376 106.056 39.4124C106.035 39.4593 106.019 39.5114 106.003 39.5635C106.003 39.5843 106.003 39.6103 105.983 39.6364C105.962 39.6624 105.951 39.7614 105.941 39.8239V39.8395C104.894 45.4646 103.337 50.975 101.285 56.3182C101.285 56.3338 101.274 56.3494 101.269 56.3702C101.154 56.6567 101.092 56.9588 101.087 57.2713C101.05 58.7035 102.191 59.8963 103.628 59.9327H103.91C105.951 59.9171 107.993 59.7296 110.003 59.365C114.868 58.4692 118.41 56.6568 120.54 53.9953C122.014 52.1516 123.509 48.938 122.29 44.0838C121.373 40.4588 118.378 38.1672 113.852 37.6046L113.852 37.6051ZM116.472 50.7406C114.628 53.0531 110.665 54.0843 107.483 54.4958L107.477 54.4906C108.774 50.6364 109.837 46.6988 110.665 42.7146C112.894 42.5948 116.592 42.7979 117.238 45.35C117.805 47.6156 117.555 49.376 116.472 50.7407L116.472 50.7406Z" fill="black"/>
<path d="M40.9454 54.6411C40.9454 61.3389 30.8984 61.3389 30.8984 54.6411C30.8984 47.9432 40.9454 47.9432 40.9454 54.6411Z" fill="black"/>
<path d="M80.045 54.6411C80.045 61.3389 69.998 61.3389 69.998 54.6411C69.998 47.9432 80.045 47.9432 80.045 54.6411Z" fill="black"/>
<path d="M66.6698 68.8185C66.5761 68.5268 64.2896 61.7144 55.472 61.7144C46.6544 61.7144 44.3574 68.5269 44.2741 68.8185C44.1856 69.0841 44.1387 69.3654 44.1387 69.6466C44.1335 70.9383 45.0762 72.0321 46.347 72.2299C47.623 72.4227 48.847 71.657 49.2324 70.4278C49.4095 69.9486 50.7376 66.933 55.4824 66.933C60.2272 66.933 61.545 69.9538 61.7324 70.4278C62.1074 71.6622 63.3366 72.433 64.6127 72.2403C65.894 72.0424 66.8315 70.9383 66.8263 69.6466H66.8211C66.8211 69.3654 66.7742 69.0841 66.6857 68.8185H66.6698Z" fill="black"/>
</svg>
