<svg width="113" height="113" viewBox="0 0 113 113" fill="none" xmlns="http://www.w3.org/2000/svg">
<path d="M56.5 0L60.4896 5.80676L65.3385 0.69561L68.3707 7.05499L73.9595 2.76531L75.9594 9.52073L82.1505 6.15813L83.0691 13.1432L89.7099 10.7905L89.5244 17.8334L96.4515 16.5485L95.1666 23.4756L102.209 23.2901L99.8568 29.9309L106.842 30.8495L103.479 37.0406L110.235 39.0405L105.945 44.6293L112.304 47.6615L107.193 52.5104L113 56.5L107.193 60.4896L112.304 65.3385L105.945 68.3707L110.235 73.9595L103.479 75.9594L106.842 82.1505L99.8568 83.0691L102.209 89.7099L95.1666 89.5244L96.4515 96.4515L89.5244 95.1666L89.7099 102.209L83.0691 99.8568L82.1505 106.842L75.9594 103.479L73.9595 110.235L68.3707 105.945L65.3385 112.304L60.4896 107.193L56.5 113L52.5104 107.193L47.6615 112.304L44.6293 105.945L39.0405 110.235L37.0406 103.479L30.8495 106.842L29.9309 99.8568L23.2901 102.209L23.4756 95.1666L16.5485 96.4515L17.8334 89.5244L10.7905 89.7099L13.1432 83.0691L6.15813 82.1505L9.52073 75.9594L2.76531 73.9595L7.05499 68.3707L0.69561 65.3385L5.80676 60.4896L0 56.5L5.80676 52.5104L0.69561 47.6615L7.05499 44.6293L2.76531 39.0405L9.52073 37.0406L6.15813 30.8495L13.1432 29.9309L10.7905 23.2901L17.8334 23.4756L16.5485 16.5485L23.4756 17.8334L23.2901 10.7905L29.9309 13.1432L30.8495 6.15813L37.0406 9.52073L39.0405 2.76531L44.6293 7.05499L47.6615 0.69561L52.5104 5.80676L56.5 0Z" fill="#F8E399"/>
<path d="M37.8745 53H40.2105V48.584H45.2345V46.632H40.2105V43.928H45.5705V41.976H37.8745V53ZM51.2473 48.584C53.0233 48.584 53.3273 49.16 53.3273 50.36V50.52C53.3273 51.688 53.3593 52.52 53.5513 53H55.8233C55.6633 52.488 55.6633 51.64 55.6633 50.904V50.36C55.6633 48.376 54.8313 47.816 54.2873 47.608C55.0873 47.272 55.8873 46.472 55.8873 45C55.8873 43.288 54.5913 41.976 52.1913 41.976H47.3433V53H49.6793V48.584H51.2473ZM49.6793 43.864H51.7273C52.8953 43.864 53.4873 44.376 53.4873 45.272C53.4873 46.184 52.9753 46.68 51.6793 46.68H49.6793V43.864ZM65.6151 46.28H60.3351V43.928H65.8391V41.976H58.0151V53H65.8711L66.1591 51.048H60.3351V48.248H65.6151V46.28ZM75.4589 46.28H70.1789V43.928H75.6829V41.976H67.8589V53H75.7149L76.0029 51.048H70.1789V48.248H75.4589V46.28ZM18.7702 69.768C19.0262 71.784 20.5142 73.16 23.3142 73.16C26.2262 73.16 27.7462 71.768 27.7462 69.768C27.7462 68.2 27.0422 67.016 23.8422 66.248C22.0502 65.848 21.5862 65.528 21.5862 64.76C21.5862 63.976 22.1622 63.576 23.1382 63.576C24.5622 63.576 24.9302 64.312 25.0582 65H27.4582C27.2982 63.384 26.1302 61.816 23.2022 61.816C20.5942 61.816 19.1542 63.112 19.1542 65.032C19.1542 66.52 19.8902 67.624 22.8982 68.328C24.7862 68.76 25.3142 69.144 25.3142 70.056C25.3142 70.856 24.7702 71.368 23.4902 71.368C22.2102 71.368 21.4262 70.872 21.1702 69.768H18.7702ZM29.5073 73H31.8913V68.232H36.3393V73H38.7233V61.976H36.3393V66.264H31.8913V61.976H29.5073V73ZM41.3511 61.976V73H43.7351V61.976H41.3511ZM46.3667 73H48.7507V68.888H50.8787C53.0547 68.888 54.8627 67.784 54.8627 65.384C54.8627 63.288 53.2787 61.976 50.9267 61.976H46.3667V73ZM48.7507 63.864H50.6227C51.6307 63.864 52.4627 64.296 52.4627 65.432C52.4627 66.552 51.6787 66.984 50.5747 66.984H48.7507V63.864ZM56.6636 73H59.0476V68.888H61.1756C63.3516 68.888 65.1596 67.784 65.1596 65.384C65.1596 63.288 63.5756 61.976 61.2236 61.976H56.6636V73ZM59.0476 63.864H60.9196C61.9276 63.864 62.7596 64.296 62.7596 65.432C62.7596 66.552 61.9756 66.984 60.8716 66.984H59.0476V63.864ZM66.9604 61.976V73H69.3444V61.976H66.9604ZM74.1521 73V69.64C74.1521 67.672 74.1201 65.4 74.0401 64.44H74.0721C74.6321 65.72 77.4481 70.84 78.6321 73H81.4321V61.976H79.2721V65.24C79.2721 67.048 79.2721 68.968 79.4001 70.12H79.3681C78.8561 68.92 76.3121 64.44 74.9361 61.976H71.9761V73H74.1521ZM93.6542 66.824H88.9022V68.776H91.3182V68.888C91.3182 69.864 90.9342 71.288 88.9022 71.288C86.7102 71.288 85.9742 69.416 85.9742 67.512C85.9742 65.576 86.6142 63.672 88.8862 63.672C90.5022 63.672 91.0782 64.552 91.3022 65.288H93.6862C93.4302 63.416 91.7502 61.816 88.9182 61.816C85.4462 61.816 83.5102 64.312 83.5102 67.624C83.5102 70.76 85.3022 73.192 88.5022 73.192C90.0382 73.192 91.1102 72.744 91.7182 71.912C91.7502 72.28 91.8142 72.664 91.9102 73H93.6542V66.824Z" fill="black"/>
</svg>
