<svg width="113" height="113" viewBox="0 0 113 113" fill="none" xmlns="http://www.w3.org/2000/svg">
    <path d="M56.5 0L60.4896 5.80676L65.3385 0.69561L68.3707 7.05499L73.9595 2.76531L75.9594 9.52073L82.1505 6.15813L83.0691 13.1432L89.7099 10.7905L89.5244 17.8334L96.4515 16.5485L95.1666 23.4756L102.209 23.2901L99.8568 29.9309L106.842 30.8495L103.479 37.0406L110.235 39.0405L105.945 44.6293L112.304 47.6615L107.193 52.5104L113 56.5L107.193 60.4896L112.304 65.3385L105.945 68.3707L110.235 73.9595L103.479 75.9594L106.842 82.1505L99.8568 83.0691L102.209 89.7099L95.1666 89.5244L96.4515 96.4515L89.5244 95.1666L89.7099 102.209L83.0691 99.8568L82.1505 106.842L75.9594 103.479L73.9595 110.235L68.3707 105.945L65.3385 112.304L60.4896 107.193L56.5 113L52.5104 107.193L47.6615 112.304L44.6293 105.945L39.0405 110.235L37.0406 103.479L30.8495 106.842L29.9309 99.8568L23.2901 102.209L23.4756 95.1666L16.5485 96.4515L17.8334 89.5244L10.7905 89.7099L13.1432 83.0691L6.15813 82.1505L9.52073 75.9594L2.76531 73.9595L7.05499 68.3707L0.69561 65.3385L5.80676 60.4896L0 56.5L5.80676 52.5104L0.69561 47.6615L7.05499 44.6293L2.76531 39.0405L9.52073 37.0406L6.15813 30.8495L13.1432 29.9309L10.7905 23.2901L17.8334 23.4756L16.5485 16.5485L23.4756 17.8334L23.2901 10.7905L29.9309 13.1432L30.8495 6.15813L37.0406 9.52073L39.0405 2.76531L44.6293 7.05499L47.6615 0.69561L52.5104 5.80676L56.5 0Z" fill="#F8E399"/>
    <path d="M25.0698 53H30.0618C32.3978 53 33.8858 51.592 33.8858 49.704C33.8858 48.248 32.9098 47.464 32.1578 47.176C32.9098 46.84 33.5658 46.04 33.5658 44.792C33.5658 43.352 32.5578 41.976 29.8858 41.976H25.0698V53ZM27.4058 46.328V43.816H29.6938C30.6058 43.816 31.2138 44.232 31.2138 45.032C31.2138 45.816 30.7498 46.328 29.6138 46.328H27.4058ZM27.4058 48.168H29.5498C30.8618 48.168 31.4378 48.728 31.4378 49.624C31.4378 50.616 30.8618 51.16 29.5658 51.16H27.4058V48.168ZM35.7227 41.976V48.472C35.7227 52.152 37.8667 53.16 40.3627 53.16C42.7947 53.16 45.0027 52.2 45.0027 48.424V41.976H42.6027V48.536C42.6027 50.552 41.7547 51.288 40.3947 51.288C39.1947 51.288 38.1067 50.664 38.1067 48.536V41.976H35.7227ZM49.6833 53V49.64C49.6833 47.672 49.6513 45.4 49.5713 44.44H49.6033C50.1633 45.72 52.9793 50.84 54.1633 53H56.9633V41.976H54.8033V45.24C54.8033 47.048 54.8033 48.968 54.9313 50.12H54.8993C54.3873 48.92 51.8433 44.44 50.4673 41.976H47.5073V53H49.6833ZM59.5854 53H63.8574C67.2334 53 69.2814 50.568 69.2814 47.352C69.2814 44.088 67.1694 41.976 63.9694 41.976H59.5854V53ZM61.9694 43.896H63.7774C65.9374 43.896 66.8174 45.544 66.8174 47.352C66.8174 49.496 65.8734 51.08 63.7614 51.08H61.9694V43.896ZM71.3667 53H78.9827L79.2547 51.048H73.7507V41.976H71.3667V53ZM88.2636 46.28H82.9836V43.928H88.4876V41.976H80.6636V53H88.5196L88.8076 51.048H82.9836V48.248H88.2636V46.28ZM36.6401 73H40.9121C44.2881 73 46.3361 70.568 46.3361 67.352C46.3361 64.088 44.2241 61.976 41.0241 61.976H36.6401V73ZM39.0241 63.896H40.8321C42.9921 63.896 43.8721 65.544 43.8721 67.352C43.8721 69.496 42.9281 71.08 40.8161 71.08H39.0241V63.896ZM56.0214 66.28H50.7414V63.928H56.2454V61.976H48.4214V73H56.2774L56.5654 71.048H50.7414V68.248H56.0214V66.28ZM64.7674 70.456L65.6794 73H68.1914L64.2714 61.976H61.2794L57.5354 73H59.8874L60.7354 70.456H64.7674ZM61.2474 68.504C61.8714 66.504 62.4154 64.776 62.6874 63.688H62.7034C62.9754 64.68 63.4714 66.168 64.2554 68.504H61.2474ZM69.6089 73H77.2249L77.4969 71.048H71.9929V61.976H69.6089V73Z" fill="black"/>
</svg>
