<svg width="60" height="60" viewBox="0 0 60 60" fill="none" xmlns="http://www.w3.org/2000/svg">
<g id="&#240;&#159;&#166;&#134; icon &#34;equalizer&#34;">
<path id="Vector" d="M10.0001 16.253V0H6.00011V16.253C4.28279 16.6966 2.76154 17.6982 1.67545 19.1005C0.589359 20.5028 0 22.2262 0 23.9999C0 25.7736 0.589359 27.497 1.67545 28.8992C2.76154 30.3015 4.28279 31.3031 6.00011 31.7467V59.9997H10.0001V31.7467C11.7174 31.3031 13.2387 30.3015 14.3248 28.8992C15.4108 27.497 16.0002 25.7736 16.0002 23.9999C16.0002 22.2262 15.4108 20.5028 14.3248 19.1005C13.2387 17.6982 11.7174 16.6966 10.0001 16.253ZM8.0001 27.9999C7.20898 27.9999 6.43563 27.7653 5.77783 27.3257C5.12004 26.8862 4.60735 26.2615 4.3046 25.5306C4.00185 24.7997 3.92264 23.9954 4.07698 23.2195C4.23132 22.4436 4.61228 21.7309 5.17169 21.1715C5.7311 20.6121 6.44382 20.2311 7.21974 20.0768C7.99566 19.9224 8.79993 20.0016 9.53083 20.3044C10.2617 20.6071 10.8864 21.1198 11.326 21.7776C11.7655 22.4354 12.0001 23.2088 12.0001 23.9999C11.9989 25.0604 11.5771 26.0771 10.8272 26.827C10.0773 27.5769 9.0606 27.9987 8.0001 27.9999Z" fill="#F7DF1E"/>
<path id="Vector_2" d="M32.0001 34.2529V0H28.0001V34.2529C26.2828 34.6965 24.7615 35.6982 23.6755 37.1004C22.5894 38.5027 22 40.2261 22 41.9998C22 43.7735 22.5894 45.4969 23.6755 46.8991C24.7615 48.3014 26.2828 49.303 28.0001 49.7466V59.9997H32.0001V49.7466C33.7174 49.303 35.2387 48.3014 36.3248 46.8991C37.4108 45.4969 38.0002 43.7735 38.0002 41.9998C38.0002 40.2261 37.4108 38.5027 36.3248 37.1004C35.2387 35.6982 33.7174 34.6965 32.0001 34.2529ZM30.0001 45.9998C29.209 45.9998 28.4356 45.7652 27.7778 45.3256C27.12 44.8861 26.6074 44.2614 26.3046 43.5305C26.0019 42.7996 25.9226 41.9953 26.077 41.2194C26.2313 40.4435 26.6123 39.7308 27.1717 39.1714C27.7311 38.612 28.4438 38.231 29.2197 38.0767C29.9957 37.9223 30.7999 38.0015 31.5308 38.3043C32.2617 38.607 32.8864 39.1197 33.326 39.7775C33.7655 40.4353 34.0001 41.2087 34.0001 41.9998C33.9989 43.0603 33.5771 44.077 32.8272 44.8269C32.0773 45.5768 31.0606 45.9986 30.0001 45.9998Z" fill="#F7DF1E"/>
<path id="Vector_3" d="M53.9998 8.25308V0H49.9999V8.25308C48.2825 8.69666 46.7613 9.69829 45.6752 11.1006C44.5891 12.5028 43.9998 14.2262 43.9998 15.9999C43.9998 17.7736 44.5891 19.497 45.6752 20.8993C46.7613 22.3015 48.2825 23.3032 49.9999 23.7467V59.9997H53.9998V23.7467C55.7172 23.3032 57.2384 22.3015 58.3245 20.8993C59.4106 19.497 60 17.7736 60 15.9999C60 14.2262 59.4106 12.5028 58.3245 11.1006C57.2384 9.69829 55.7172 8.69666 53.9998 8.25308ZM51.9999 19.9999C51.2087 19.9999 50.4354 19.7653 49.7776 19.3258C49.1198 18.8863 48.6071 18.2615 48.3044 17.5306C48.0016 16.7997 47.9224 15.9955 48.0767 15.2196C48.2311 14.4436 48.612 13.7309 49.1714 13.1715C49.7308 12.6121 50.4436 12.2311 51.2195 12.0768C51.9954 11.9225 52.7997 12.0017 53.5306 12.3044C54.2615 12.6072 54.8862 13.1199 55.3257 13.7776C55.7652 14.4354 55.9998 15.2088 55.9998 15.9999C55.9986 17.0604 55.5768 18.0771 54.8269 18.827C54.0771 19.5769 53.0603 19.9987 51.9999 19.9999Z" fill="#F7DF1E"/>
</g>
</svg>
