<svg width="60" height="47" viewBox="0 0 60 47" fill="none" xmlns="http://www.w3.org/2000/svg">
<g id="Group 224">
<g id="&#240;&#159;&#166;&#134; icon &#34;coffee&#34;">
<path id="Vector" d="M22.0499 33.8997H34.1391C37.8234 33.8955 41.3556 32.43 43.9607 29.8249C46.5659 27.2197 48.0313 23.6876 48.0355 20.0033V17.9469H51.0267C53.4066 17.9469 55.689 17.0015 57.3718 15.3186C59.0547 13.6358 60.0001 11.3533 60.0001 8.97344C60.0001 6.59353 59.0547 4.31111 57.3718 2.62826C55.689 0.945413 53.4066 3.54633e-08 51.0267 0H8.15356V20.0033C8.15775 23.6876 9.62318 27.2197 12.2283 29.8249C14.8335 32.43 18.3657 33.8955 22.0499 33.8997ZM48.0355 3.9882H51.0267C52.3488 3.9882 53.6168 4.51342 54.5518 5.44834C55.4867 6.38325 56.0119 7.65127 56.0119 8.97344C56.0119 10.2956 55.4867 11.5636 54.5518 12.4985C53.6168 13.4335 52.3488 13.9587 51.0267 13.9587H48.0355V3.9882ZM12.1418 3.9882H44.0473V20.0033C44.0444 22.6302 42.9995 25.1487 41.142 27.0062C39.2845 28.8637 36.7661 29.9085 34.1391 29.9115H22.0499C19.423 29.9085 16.9045 28.8637 15.047 27.0062C13.1895 25.1487 12.1447 22.6302 12.1418 20.0033V3.9882Z" fill="#F7DF1E"/>
</g>
<path id="Vector_2" d="M59.8229 42.9415H0V46.9297H59.8229V42.9415Z" fill="#F7DF1E"/>
</g>
</svg>
