<svg width="60" height="54" viewBox="0 0 60 54" fill="none" xmlns="http://www.w3.org/2000/svg">
<path d="M49.0704 0H10.9298L0 16.3945V19.4928L22.9276 54H37.0724L60 19.4928V16.3945L49.0704 0ZM46.9297 4L54.8556 15.8889H41.4674L37.726 4H46.9297ZM26.4673 4H33.5327L37.274 15.8889H22.726L26.4673 4ZM13.0704 4H22.274L18.5326 15.8889H5.14437L13.0704 4ZM25.0724 50L5.06563 19.8889H18.4147L25.4766 50H25.0724ZM29.5849 50L22.5234 19.8889H37.4766L30.4147 50H29.5849ZM34.9272 50H34.523L41.5855 19.8889H54.9344L34.9272 50Z" fill="#F7DF1E"/>
</svg>
