<svg width="113" height="113" viewBox="0 0 113 113" fill="none" xmlns="http://www.w3.org/2000/svg">
<path d="M56.5 0L60.4896 5.80676L65.3385 0.69561L68.3707 7.05499L73.9595 2.76531L75.9594 9.52073L82.1505 6.15813L83.0691 13.1432L89.7099 10.7905L89.5244 17.8334L96.4515 16.5485L95.1666 23.4756L102.209 23.2901L99.8568 29.9309L106.842 30.8495L103.479 37.0406L110.235 39.0405L105.945 44.6293L112.304 47.6615L107.193 52.5104L113 56.5L107.193 60.4896L112.304 65.3385L105.945 68.3707L110.235 73.9595L103.479 75.9594L106.842 82.1505L99.8568 83.0691L102.209 89.7099L95.1666 89.5244L96.4515 96.4515L89.5244 95.1666L89.7099 102.209L83.0691 99.8568L82.1505 106.842L75.9594 103.479L73.9595 110.235L68.3707 105.945L65.3385 112.304L60.4896 107.193L56.5 113L52.5104 107.193L47.6615 112.304L44.6293 105.945L39.0405 110.235L37.0406 103.479L30.8495 106.842L29.9309 99.8568L23.2901 102.209L23.4756 95.1666L16.5485 96.4515L17.8334 89.5244L10.7905 89.7099L13.1432 83.0691L6.15813 82.1505L9.52073 75.9594L2.76531 73.9595L7.05499 68.3707L0.69561 65.3385L5.80676 60.4896L0 56.5L5.80676 52.5104L0.69561 47.6615L7.05499 44.6293L2.76531 39.0405L9.52073 37.0406L6.15813 30.8495L13.1432 29.9309L10.7905 23.2901L17.8334 23.4756L16.5485 16.5485L23.4756 17.8334L23.2901 10.7905L29.9309 13.1432L30.8495 6.15813L37.0406 9.52073L39.0405 2.76531L44.6293 7.05499L47.6615 0.69561L52.5104 5.80676L56.5 0Z" fill="#FF8A58"/>
<path d="M44.2813 55L44.7133 52.144H37.2253C37.4893 51.424 38.2813 50.512 40.2253 49.144C43.1293 47.104 44.1373 46 44.1373 43.696C44.1373 41.344 42.7453 38.92 38.6893 38.92C35.0413 38.92 33.2653 41.2 33.0493 43.912H36.3613C36.5773 42.544 37.1293 41.584 38.6893 41.584C40.0093 41.584 40.6813 42.352 40.6813 43.72C40.6813 45.112 40.0093 45.664 37.7773 47.296C34.3453 49.792 33.1213 52.024 33.1213 54.784V55H44.2813ZM57.5034 39.208H47.9034C47.6394 41.368 46.9674 46.072 46.5354 48.064L49.6314 48.472C49.9914 47.536 50.5914 46.888 52.0554 46.888C53.8794 46.888 54.4794 48.064 54.4794 49.72C54.4794 51.448 53.6874 52.648 52.0554 52.648C50.7114 52.648 49.9674 51.952 49.6554 50.872H46.2234C46.5834 53.68 48.8634 55.288 51.9834 55.288C56.2554 55.288 57.9354 52.48 57.9354 49.432C57.9354 46.432 56.1834 44.176 53.0634 44.176C51.6954 44.176 50.8074 44.536 50.2074 45.016C50.3274 44.368 50.5914 42.856 50.6874 42.016H57.0234L57.5034 39.208ZM63.7331 38.92C60.9731 38.92 59.4611 40.912 59.4611 43.456C59.4611 46.456 61.1651 48.016 63.7091 48.016C66.4211 48.016 67.9811 46.144 67.9811 43.456C67.9811 40.456 66.2291 38.92 63.7331 38.92ZM63.7331 41.08C64.7171 41.08 65.3891 41.728 65.3891 43.456C65.3891 45.112 64.7891 45.856 63.7571 45.856C62.7011 45.856 62.1251 45.016 62.1251 43.456C62.1251 41.848 62.7491 41.08 63.7331 41.08ZM66.1811 55L75.9011 39.184H73.3811L63.6851 55H66.1811ZM75.8771 46.216C73.0931 46.216 71.6051 48.208 71.6051 50.752C71.6051 53.728 73.2851 55.312 75.8531 55.312C78.5651 55.312 80.1251 53.44 80.1251 50.728C80.1251 47.752 78.3731 46.216 75.8771 46.216ZM75.8771 48.376C76.8611 48.376 77.5331 49.024 77.5331 50.728C77.5331 52.384 76.9331 53.152 75.8771 53.152C74.8211 53.152 74.2451 52.288 74.2451 50.728C74.2451 49.144 74.8931 48.376 75.8771 48.376ZM47.1373 63.816C43.7133 63.816 41.7133 66.28 41.7133 69.48C41.7133 72.648 43.5213 75.16 46.9933 75.16C50.5773 75.16 52.4173 72.52 52.4173 69.448C52.4173 66.072 50.3693 63.816 47.1373 63.816ZM47.0413 65.752C49.0893 65.752 49.9533 67.384 49.9533 69.48C49.9533 71.448 49.2013 73.224 47.0733 73.224C45.1213 73.224 44.1773 71.592 44.1773 69.432C44.1773 67.288 45.0413 65.752 47.0413 65.752ZM54.4917 75H56.8277V70.584H61.8517V68.632H56.8277V65.928H62.1877V63.976H54.4917V75ZM63.9604 75H66.2964V70.584H71.3204V68.632H66.2964V65.928H71.6564V63.976H63.9604V75Z" fill="black"/>
</svg>
