<svg width="60" height="57" viewBox="0 0 60 57" fill="none" xmlns="http://www.w3.org/2000/svg">
<g id="&#240;&#159;&#166;&#134; icon &#34;flower&#34;">
<path id="Vector" d="M49 33.3645C45.0155 33.3683 41.1141 34.5041 37.7503 36.6397C34.3865 38.7753 31.6987 41.8227 30 45.427C28.3013 41.8227 25.6135 38.7753 22.2497 36.6397C18.8859 34.5041 14.9845 33.3683 11 33.3645H0V35.3645C0 46.944 9.4205 56.3645 21 56.3645H39C50.5795 56.3645 60 46.944 60 35.3645V33.3645H49ZM21 52.3645C12.3024 52.3645 5.1095 45.7996 4.117 37.3645H11C19.6976 37.3645 26.8905 43.9294 27.883 52.3645H21ZM39 52.3645H32.117C33.1095 43.9294 40.3024 37.3645 49 37.3645H55.883C54.8905 45.7996 47.6976 52.3645 39 52.3645Z" fill="#F7DF1E"/>
<path id="Vector_2" d="M19.1534 28.2112C19.5317 30.4603 20.6047 32.5345 22.2218 34.1428L22.8077 34.7285H23.636C25.9167 34.7349 28.1422 34.0269 30 32.704C31.8578 34.0271 34.0833 34.7352 36.364 34.729H37.1924L37.7783 34.1433C39.3954 32.535 40.4684 30.4608 40.8467 28.2117C43.0958 27.8334 45.17 26.7604 46.7783 25.1433L47.364 24.5574V23.729C47.3705 21.4482 46.6625 19.2225 45.3395 17.3645C46.6626 15.5067 47.3707 13.2813 47.3645 11.0005V10.1722L46.7788 9.58629C45.1705 7.96917 43.0963 6.89618 40.8472 6.51792C40.4689 4.2688 39.3959 2.19456 37.7788 0.58629L37.1929 0.000540681H36.3645C34.0837 -0.00590154 31.858 0.702056 30 2.02504C28.1423 0.701963 25.9168 -0.00616807 23.636 4.04785e-05H22.8077L22.2218 0.585791C20.6047 2.19406 19.5317 4.2683 19.1534 6.51742C16.9043 6.89568 14.8301 7.96867 13.2218 9.58579L12.636 10.1717V11C12.6296 13.2809 13.3376 15.5065 14.6605 17.3645C13.3375 19.2223 12.6293 21.4478 12.6355 23.7285V24.5569L13.2213 25.1428C14.8297 26.76 16.9041 27.833 19.1534 28.2112ZM18.6864 15.9504C17.5772 14.8479 16.8725 13.4033 16.6864 11.8504C17.916 10.8836 19.4359 10.3601 21 10.3645H23V8.36454C22.9955 6.80056 23.5189 5.28082 24.4855 4.05129C26.0384 4.23739 27.483 4.94207 28.5855 6.05129L30 7.46454L31.4142 6.05042C32.5167 4.94121 33.9613 4.23652 35.5142 4.05042C36.4811 5.28013 37.0046 6.80021 37 8.36454V10.3645H39C40.564 10.36 42.0838 10.8834 43.3133 11.85C43.1272 13.4029 42.4225 14.8475 41.3133 15.95L39.9 17.3645L41.3143 18.7788C42.4235 19.8813 43.1282 21.3259 43.3143 22.8788C42.0845 23.8457 40.5644 24.3692 39 24.3645H37V26.3645C37.0046 27.9285 36.4811 29.4483 35.5145 30.6778C33.9617 30.4917 32.5171 29.787 31.4145 28.6778L30 27.2645L28.5858 28.6783C27.4832 29.7875 26.0386 30.4922 24.4858 30.6783C23.519 29.4487 22.9955 27.9287 23 26.3645V24.3645H21C19.4361 24.3691 17.9163 23.8456 16.6868 22.879C16.8729 21.3262 17.5776 19.8816 18.6868 18.779L20.1 17.3645L18.6864 15.9504Z" fill="#F7DF1E"/>
</g>
</svg>
