<svg width="113" height="113" viewBox="0 0 113 113" fill="none" xmlns="http://www.w3.org/2000/svg">
<path d="M56.5 0L60.4896 5.80676L65.3385 0.69561L68.3707 7.05499L73.9595 2.76531L75.9594 9.52073L82.1505 6.15813L83.0691 13.1432L89.7099 10.7905L89.5244 17.8334L96.4515 16.5485L95.1666 23.4756L102.209 23.2901L99.8568 29.9309L106.842 30.8495L103.479 37.0406L110.235 39.0405L105.945 44.6293L112.304 47.6615L107.193 52.5104L113 56.5L107.193 60.4896L112.304 65.3385L105.945 68.3707L110.235 73.9595L103.479 75.9594L106.842 82.1505L99.8568 83.0691L102.209 89.7099L95.1666 89.5244L96.4515 96.4515L89.5244 95.1666L89.7099 102.209L83.0691 99.8568L82.1505 106.842L75.9594 103.479L73.9595 110.235L68.3707 105.945L65.3385 112.304L60.4896 107.193L56.5 113L52.5104 107.193L47.6615 112.304L44.6293 105.945L39.0405 110.235L37.0406 103.479L30.8495 106.842L29.9309 99.8568L23.2901 102.209L23.4756 95.1666L16.5485 96.4515L17.8334 89.5244L10.7905 89.7099L13.1432 83.0691L6.15813 82.1505L9.52073 75.9594L2.76531 73.9595L7.05499 68.3707L0.69561 65.3385L5.80676 60.4896L0 56.5L5.80676 52.5104L0.69561 47.6615L7.05499 44.6293L2.76531 39.0405L9.52073 37.0406L6.15813 30.8495L13.1432 29.9309L10.7905 23.2901L17.8334 23.4756L16.5485 16.5485L23.4756 17.8334L23.2901 10.7905L29.9309 13.1432L30.8495 6.15813L37.0406 9.52073L39.0405 2.76531L44.6293 7.05499L47.6615 0.69561L52.5104 5.80676L56.5 0Z" fill="#24F0D0"/>
<path d="M22.5776 53H27.5696C29.9056 53 31.3936 51.592 31.3936 49.704C31.3936 48.248 30.4176 47.464 29.6656 47.176C30.4176 46.84 31.0736 46.04 31.0736 44.792C31.0736 43.352 30.0656 41.976 27.3936 41.976H22.5776V53ZM24.9136 46.328V43.816H27.2016C28.1136 43.816 28.7216 44.232 28.7216 45.032C28.7216 45.816 28.2576 46.328 27.1216 46.328H24.9136ZM24.9136 48.168H27.0576C28.3696 48.168 28.9456 48.728 28.9456 49.624C28.9456 50.616 28.3696 51.16 27.0736 51.16H24.9136V48.168ZM33.2305 41.976V48.472C33.2305 52.152 35.3745 53.16 37.8705 53.16C40.3025 53.16 42.5105 52.2 42.5105 48.424V41.976H40.1105V48.536C40.1105 50.552 39.2625 51.288 37.9025 51.288C36.7025 51.288 35.6145 50.664 35.6145 48.536V41.976H33.2305ZM49.878 53V49.064C49.878 48.84 49.926 48.792 49.958 48.712L53.814 41.976H51.318C50.486 43.56 49.286 45.896 48.806 47.048C48.246 45.848 47.142 43.64 46.294 41.976H43.59L47.398 48.744C47.478 48.872 47.494 48.984 47.494 49.096V53H49.878ZM63.7233 41.816C60.2993 41.816 58.2993 44.28 58.2993 47.48C58.2993 50.648 60.1073 53.16 63.5793 53.16C67.1633 53.16 69.0033 50.52 69.0033 47.448C69.0033 44.072 66.9553 41.816 63.7233 41.816ZM63.6273 43.752C65.6753 43.752 66.5393 45.384 66.5393 47.48C66.5393 49.448 65.7873 51.224 63.6593 51.224C61.7073 51.224 60.7633 49.592 60.7633 47.432C60.7633 45.288 61.6273 43.752 63.6273 43.752ZM73.2536 53V49.64C73.2536 47.672 73.2216 45.4 73.1416 44.44H73.1736C73.7336 45.72 76.5496 50.84 77.7336 53H80.5336V41.976H78.3736V45.24C78.3736 47.048 78.3736 48.968 78.5016 50.12H78.4696C77.9576 48.92 75.4136 44.44 74.0376 41.976H71.0776V53H73.2536ZM90.7558 46.28H85.4758V43.928H90.9798V41.976H83.1558V53H91.0118L91.2998 51.048H85.4758V48.248H90.7558V46.28ZM32.5214 66.824H27.7694V68.776H30.1854V68.888C30.1854 69.864 29.8014 71.288 27.7694 71.288C25.5774 71.288 24.8414 69.416 24.8414 67.512C24.8414 65.576 25.4814 63.672 27.7534 63.672C29.3694 63.672 29.9454 64.552 30.1694 65.288H32.5534C32.2974 63.416 30.6174 61.816 27.7854 61.816C24.3134 61.816 22.3774 64.312 22.3774 67.624C22.3774 70.76 24.1694 73.192 27.3694 73.192C28.9054 73.192 29.9774 72.744 30.5854 71.912C30.6174 72.28 30.6814 72.664 30.7774 73H32.5214V66.824ZM42.537 66.28H37.257V63.928H42.761V61.976H34.937V73H42.793L43.081 71.048H37.257V68.248H42.537V66.28ZM47.4263 73H49.8103V63.928H53.1543V61.976H44.0663V63.928H47.4263V73ZM63.3795 61.816C59.9555 61.816 57.9555 64.28 57.9555 67.48C57.9555 70.648 59.7635 73.16 63.2355 73.16C66.8195 73.16 68.6595 70.52 68.6595 67.448C68.6595 64.072 66.6115 61.816 63.3795 61.816ZM63.2835 63.752C65.3315 63.752 66.1955 65.384 66.1955 67.48C66.1955 69.448 65.4435 71.224 63.3155 71.224C61.3635 71.224 60.4195 69.592 60.4195 67.432C60.4195 65.288 61.2835 63.752 63.2835 63.752ZM72.9099 73V69.64C72.9099 67.672 72.8779 65.4 72.7979 64.44H72.8299C73.3899 65.72 76.2059 70.84 77.3899 73H80.1899V61.976H78.0299V65.24C78.0299 67.048 78.0299 68.968 78.1579 70.12H78.1259C77.6139 68.92 75.0699 64.44 73.6939 61.976H70.7339V73H72.9099ZM90.412 66.28H85.132V63.928H90.636V61.976H82.812V73H90.668L90.956 71.048H85.132V68.248H90.412V66.28Z" fill="black"/>
</svg>
